name rise43.5482peak65.4966fall89.1036.mot
datacolumns 19
datarows 20
range 12.15327900000000 12.18494500000000
endheader
time	ground_force1_vx	ground_force1_vy	ground_force1_vz	ground_force1_px	ground_force1_py	ground_force1_pz	ground_force2_vx	ground_force2_vy	ground_force2_vz	ground_force2_px	ground_force2_py	ground_force2_pz	ground_torque1_x	ground_torque1_y	ground_torque1_z	ground_torque2_x	ground_torque2_y	ground_torque2_z	
12.15327900000000	-6.50954200000000	45.85034400000000	-11.26989900000000	0.29989000000000	0.00000000000000	0.09969700000000	-41.03129900000000	810.39580500000000	-55.82216200000000	0.09887700000000	0.00000000000000	-0.08461400000000	0.00000000000000	-6.29938900000000	0.00000000000000	0.00000000000000	-14.80546400000000	0.00000000000000	
12.15494800000000	-7.02295000000000	52.15606900000000	-12.36516800000000	0.30182800000000	0.00000000000000	0.10022100000000	-41.82570900000000	808.62941100000000	-55.62331900000000	0.09789700000000	0.00000000000000	-0.08452600000000	0.00000000000000	-6.95998400000000	0.00000000000000	0.00000000000000	-14.77361900000000	0.00000000000000	
12.15661100000000	-7.41780700000000	58.33329800000000	-13.31096000000000	0.30363500000000	0.00000000000000	0.10074200000000	-42.63199500000000	806.74288600000000	-55.40954000000000	0.09691600000000	0.00000000000000	-0.08443800000000	0.00000000000000	-7.54609200000000	0.00000000000000	0.00000000000000	-14.74362600000000	0.00000000000000	
12.15828300000000	-7.68331700000000	64.31699900000000	-14.08996900000000	0.30532600000000	0.00000000000000	0.10125900000000	-43.44982800000000	804.73335099999997	-55.18056700000000	0.09593500000000	0.00000000000000	-0.08434700000000	0.00000000000000	-8.04737300000000	0.00000000000000	0.00000000000000	-14.71552300000000	0.00000000000000	
12.15994700000000	-7.81477800000000	70.06890600000000	-14.69419400000000	0.30691500000000	0.00000000000000	0.10177200000000	-44.27881700000000	802.59790899999996	-54.93615300000000	0.09495200000000	0.00000000000000	-0.08425400000000	0.00000000000000	-8.45860800000000	0.00000000000000	0.00000000000000	-14.68933700000000	0.00000000000000	
12.16161500000000	-7.81307800000000	75.57666800000000	-15.12424300000000	0.30841400000000	0.00000000000000	0.10228000000000	-45.11850300000000	800.33364600000004	-54.67605500000000	0.09396900000000	0.00000000000000	-0.08416000000000	0.00000000000000	-8.77938300000000	0.00000000000000	0.00000000000000	-14.66508500000000	0.00000000000000	
12.16328400000000	-7.68382400000000	80.85101200000000	-15.38805000000000	0.30983100000000	0.00000000000000	0.10278500000000	-45.96835900000000	797.93764599999997	-54.40004600000000	0.09298600000000	0.00000000000000	-0.08406400000000	0.00000000000000	-9.01342500000000	0.00000000000000	0.00000000000000	-14.64277700000000	0.00000000000000	
12.16495100000000	-7.43623700000000	85.92149400000000	-15.49921200000000	0.31117500000000	0.00000000000000	0.10328500000000	-46.82779200000000	795.40698699999996	-54.10790700000000	0.09200300000000	0.00000000000000	-0.08396600000000	0.00000000000000	-9.16771500000000	0.00000000000000	0.00000000000000	-14.62240700000000	0.00000000000000	
12.16661800000000	-7.08194900000000	90.83144600000000	-15.47515400000000	0.31245200000000	0.00000000000000	0.10378100000000	-47.69613400000000	792.73875599999997	-53.79943500000000	0.09102000000000	0.00000000000000	-0.08386700000000	0.00000000000000	-9.25148300000000	0.00000000000000	0.00000000000000	-14.60396100000000	0.00000000000000	
12.16828400000000	-6.63381900000000	95.63266400000001	-15.33529100000000	0.31366900000000	0.00000000000000	0.10427300000000	-48.57264900000000	789.93005500000004	-53.47444000000000	0.09003800000000	0.00000000000000	-0.08376500000000	0.00000000000000	-9.27520100000000	0.00000000000000	0.00000000000000	-14.58741400000000	0.00000000000000	
12.16994800000000	-6.10485200000000	100.38033200000000	-15.09935700000000	0.31483000000000	0.00000000000000	0.10476000000000	-49.45652400000000	786.97800700000005	-53.13274800000000	0.08905700000000	0.00000000000000	-0.08366200000000	0.00000000000000	-9.24963500000000	0.00000000000000	0.00000000000000	-14.57272900000000	0.00000000000000	
12.17161800000000	-5.50730700000000	105.12852100000001	-14.78598500000000	0.31594000000000	0.00000000000000	0.10524300000000	-50.34687700000000	783.87976600000002	-52.77420500000000	0.08807600000000	0.00000000000000	-0.08355700000000	0.00000000000000	-9.18505000000000	0.00000000000000	0.00000000000000	-14.55985400000000	0.00000000000000	
12.17328600000000	-4.85200900000000	109.92654700000000	-14.41162200000000	0.31700100000000	0.00000000000000	0.10572100000000	-51.24274800000000	780.63252499999999	-52.39867200000000	0.08709800000000	0.00000000000000	-0.08345100000000	0.00000000000000	-9.09057700000000	0.00000000000000	0.00000000000000	-14.54872800000000	0.00000000000000	
12.17495100000000	-4.14790400000000	114.81629300000000	-13.98979700000000	0.31801800000000	0.00000000000000	0.10619400000000	-52.14310200000000	777.23352499999999	-52.00603200000000	0.08612000000000	0.00000000000000	-0.08334200000000	0.00000000000000	-8.97378400000000	0.00000000000000	0.00000000000000	-14.53927600000000	0.00000000000000	
12.17661300000000	-3.40183400000000	119.83054500000000	-13.53073900000000	0.31899200000000	0.00000000000000	0.10666300000000	-53.04683300000000	773.68006300000002	-51.59618900000000	0.08514500000000	0.00000000000000	-0.08323200000000	0.00000000000000	-8.84043600000000	0.00000000000000	0.00000000000000	-14.53141100000000	0.00000000000000	
12.17827900000000	-2.61851400000000	124.99228700000000	-13.04130700000000	0.31992600000000	0.00000000000000	0.10712700000000	-53.95275600000000	769.96950500000003	-51.16906900000000	0.08417300000000	0.00000000000000	-0.08312000000000	0.00000000000000	-8.69444000000000	0.00000000000000	0.00000000000000	-14.52503200000000	0.00000000000000	
12.17995000000000	-1.80068400000000	130.31481500000001	-12.52518900000000	0.32082100000000	0.00000000000000	0.10758600000000	-54.85961400000000	766.09929000000000	-50.72462300000000	0.08320200000000	0.00000000000000	-0.08300700000000	0.00000000000000	-8.53792800000000	0.00000000000000	0.00000000000000	-14.52002600000000	0.00000000000000	
12.18161900000000	-0.94937600000000	135.80254199999999	-11.98329800000000	0.32167800000000	0.00000000000000	0.10803900000000	-55.76607500000000	762.06694600000003	-50.26282600000000	0.08223500000000	0.00000000000000	-0.08289200000000	0.00000000000000	-8.37146700000000	0.00000000000000	0.00000000000000	-14.51626400000000	0.00000000000000	
12.18327900000000	-0.06426900000000	141.45228200000000	-11.41430800000000	0.32249800000000	0.00000000000000	0.10848800000000	-56.67073500000000	757.87009399999999	-49.78368000000000	0.08127000000000	0.00000000000000	-0.08277500000000	0.00000000000000	-8.19434700000000	0.00000000000000	0.00000000000000	-14.51360700000000	0.00000000000000	
12.18494500000000	0.85590900000000	147.25483399999999	-10.81525500000000	0.32328300000000	0.00000000000000	0.10893100000000	-57.57211900000000	753.50646400000005	-49.28721200000000	0.08030900000000	0.00000000000000	-0.08265600000000	0.00000000000000	-8.00490700000000	0.00000000000000	0.00000000000000	-14.51190200000000	0.00000000000000	
